<?xml version="1.0" encoding="UTF-8"?>
<svg xmlns="http://www.w3.org/2000/svg" xmlns:xlink="http://www.w3.org/1999/xlink" width="800px" height="400px" viewBox="0 0 1000 400" version="1.1">
<g id="surface1">
<path style=" stroke:none;fill-rule:nonzero;fill:rgb(0.392151%,43.528748%,26.274109%);fill-opacity:1;" d="M 167.222656 97.050781 C 163.3125 100.46875 160.304688 101.046875 158.984375 99.65625 C 158.121094 98.746094 157.949219 96.988281 158.601563 94.714844 C 160.675781 87.503906 162.289063 80.21875 163.628906 72.816406 C 163.636719 72.816406 163.648438 72.808594 163.660156 72.804688 C 171.535156 69.117188 179.445313 65.734375 188.191406 64.820313 C 184.058594 76.621094 176.570313 88.871094 167.222656 97.050781 M 163.179688 121.269531 C 158.242188 120.179688 155.882813 117.964844 156.035156 115.953125 C 156.132813 114.632813 157.28125 113.363281 159.300781 112.464844 C 165.507813 109.714844 171.632813 106.683594 177.402344 103.058594 C 177.414063 103.0625 177.425781 103.070313 177.433594 103.074219 C 185.078125 106.976563 192.421875 111.929688 198.328125 118.199219 C 187.589844 122.386719 174.292969 123.730469 163.179688 121.269531 M 142.765625 134.109375 C 140.382813 128.898438 140.5625 125.363281 142.175781 124.140625 C 143.234375 123.339844 144.921875 123.492188 146.886719 124.652344 C 152.886719 128.195313 159.070313 131.503906 165.554688 134.128906 C 165.554688 134.140625 165.558594 134.15625 165.5625 134.167969 C 167.890625 143.910156 169.25 154.132813 168.648438 164.15625 C 157.859375 157.089844 148.066406 145.710938 142.765625 134.109375 M 119.589844 124.761719 C 122.265625 119.066406 125.121094 116.925781 127.089844 117.523438 C 128.378906 117.914063 129.328125 119.476563 129.675781 121.984375 C 130.777344 129.910156 132.371094 137.6875 134.3125 145.464844 C 134.304688 145.476563 134.292969 145.488281 134.285156 145.5 C 127.574219 155.027344 120.371094 164.199219 111.335938 171.660156 C 110.269531 156.265625 113.0625 138.652344 119.589844 124.761719 M 112.597656 98.574219 C 118.71875 97.285156 122.0625 98.347656 122.8125 100.367188 C 123.304688 101.695313 122.695313 103.46875 120.960938 105.359375 C 115.230469 111.609375 109.980469 118.183594 104.9375 125.019531 L 104.890625 125.019531 C 92.554688 125.933594 79.71875 125.425781 67.679688 122.421875 C 79.945313 111.554688 96.574219 101.953125 112.597656 98.574219 M 128.234375 77.34375 C 132.816406 81.445313 134.070313 84.722656 133.046875 86.507813 C 132.375 87.679688 130.703125 88.234375 128.253906 87.945313 C 120.042969 86.976563 111.851563 86.601563 103.566406 86.539063 C 103.558594 86.527344 103.550781 86.515625 103.539063 86.503906 C 95.714844 77.191406 88.640625 66.703125 84.089844 55.378906 C 99.597656 59.054688 116.375 66.722656 128.234375 77.34375 M 152.558594 77.683594 C 152.523438 83.496094 151.019531 86.421875 149.148438 86.640625 C 147.925781 86.785156 146.515625 85.769531 145.234375 83.664063 C 141.039063 76.777344 136.445313 70.210938 131.570313 63.761719 C 131.570313 63.746094 131.578125 63.734375 131.582031 63.71875 C 133.472656 53.546875 136.503906 43.175781 141.683594 34.152344 C 148.164063 47.210938 152.636719 63.15625 152.558594 77.683594 "/>
<path style=" stroke:none;fill-rule:nonzero;fill:rgb(23.529053%,68.626404%,17.254639%);fill-opacity:1;" d="M 166.632813 43.328125 C 166.171875 51.089844 165.609375 58.867188 164.558594 66.464844 C 164.273438 68.523438 163.953125 70.925781 163.628906 72.820313 C 163.636719 72.816406 163.648438 72.808594 163.660156 72.804688 C 171.535156 69.117188 179.445313 65.734375 188.191406 64.820313 C 182.699219 56.171875 175.332031 48.75 166.632813 43.328125 M 197.863281 88.3125 C 192.8125 92.464844 187.621094 96.488281 182.132813 100.007813 C 180.597656 100.992188 178.855469 102.179688 177.402344 103.058594 C 177.414063 103.0625 177.425781 103.070313 177.433594 103.074219 C 185.078125 106.976563 192.417969 111.925781 198.324219 118.195313 C 199.726563 107.835938 199.613281 98.621094 197.863281 88.3125 M 189.425781 141.976563 C 183.132813 140.382813 176.867188 138.570313 170.847656 136.199219 C 169.132813 135.523438 167.140625 134.804688 165.554688 134.128906 C 165.554688 134.140625 165.558594 134.15625 165.5625 134.167969 C 167.890625 143.90625 169.25 154.128906 168.652344 164.152344 C 177.128906 158.425781 184.234375 150.785156 189.425781 141.976563 M 144.152344 174.238281 C 141.222656 166.859375 138.410156 159.421875 136.175781 151.929688 C 135.554688 149.847656 134.820313 147.425781 134.3125 145.464844 C 134.304688 145.476563 134.292969 145.488281 134.285156 145.5 C 127.574219 155.027344 120.375 164.195313 111.34375 171.65625 C 122.25 174.851563 132.84375 176.351563 144.152344 174.238281 M 86.0625 155.515625 C 90.617188 147.222656 95.410156 139.003906 100.660156 131.257813 C 102.050781 129.203125 103.617188 126.839844 104.9375 125.019531 C 104.921875 125.019531 104.90625 125.019531 104.890625 125.019531 C 92.554688 125.933594 79.722656 125.425781 67.683594 122.421875 C 70.765625 134.835938 77.078125 146.394531 86.0625 155.515625 M 67 89.347656 C 76.675781 88.160156 86.398438 87.082031 96.03125 86.753906 C 98.519531 86.671875 101.339844 86.546875 103.566406 86.539063 C 103.558594 86.527344 103.550781 86.515625 103.539063 86.503906 C 95.71875 77.195313 88.640625 66.707031 84.09375 55.382813 C 75.464844 64.921875 69.570313 76.757813 67 89.347656 M 141.679688 34.15625 C 136.5 43.175781 133.472656 53.546875 131.582031 63.71875 C 131.578125 63.734375 131.574219 63.746094 131.570313 63.761719 C 130.269531 62.070313 128.546875 60.035156 127.054688 58.179688 C 121.398438 51.136719 115.148438 44.546875 108.820313 38.078125 C 119.203125 33.910156 130.605469 32.542969 141.679688 34.15625 "/>
<path style=" stroke:none;fill-rule:nonzero;fill:rgb(23.529053%,68.626404%,17.254639%);fill-opacity:1;" d="M 639.089844 74.125 L 641.664063 55.726563 L 620.359375 55.726563 L 617.78125 74.125 Z M 607.078125 150.601563 L 628.382813 150.601563 L 637.761719 83.605469 L 616.457031 83.605469 Z M 335.984375 74.125 L 338.5625 55.726563 L 317.257813 55.726563 L 314.679688 74.125 Z M 303.976563 150.601563 L 325.28125 150.601563 L 334.660156 83.605469 L 313.355469 83.605469 Z M 236.125 80.566406 C 234.332031 94.394531 239.164063 102.570313 252.289063 107.90625 L 269.621094 114.800781 C 275.125 116.8125 276.339844 117.839844 275.628906 123.285156 C 274.558594 130.3125 271.828125 132.1875 259.710938 132.1875 L 230.265625 132.1875 L 227.648438 150.585938 L 260.570313 150.585938 C 286.21875 150.585938 294.828125 144.542969 297.429688 124.710938 C 299.035156 112.195313 296.867188 103.214844 281.117188 97.105469 L 264.734375 90.867188 C 258.386719 88.496094 257.214844 87.546875 258.054688 81.988281 C 259.027344 75.796875 261.308594 74.457031 266.0625 74.125 L 301.199219 74.125 L 303.816406 55.726563 L 272.457031 55.726563 C 251.109375 55.726563 239 59.683594 236.125 80.566406 M 461.210938 83.605469 L 457.078125 83.605469 C 449.238281 83.605469 441.558594 87.488281 431.664063 96.53125 L 431.664063 83.605469 L 414.722656 83.605469 L 405.347656 150.601563 L 426.792969 150.601563 L 431.984375 112.066406 C 434.6875 108.625 442.199219 104.570313 447.785156 104.570313 L 452.359375 104.570313 L 452.523438 103.839844 C 452.539063 103.753906 454.472656 95.140625 460.390625 85.007813 Z M 495.753906 110.824219 C 501.992188 110.324219 504.890625 109.101563 505.617188 103.183594 C 505.796875 101.117188 505.585938 99.863281 504.925781 99.144531 C 503.949219 98.082031 501.648438 97.867188 498.253906 97.867188 C 497.628906 97.867188 496.960938 97.878906 496.253906 97.890625 C 486.222656 97.890625 483.746094 101.3125 481.777344 112.15625 Z M 523.023438 89.195313 C 526.277344 92.945313 527.371094 98.207031 526.359375 105.277344 C 524.277344 119.539063 514.277344 123.082031 498.8125 124.175781 L 480.433594 125.5625 C 480.929688 133.289063 484.957031 134.734375 492.539063 134.734375 C 499.078125 134.734375 514.835938 133.964844 517.410156 133.308594 L 518.445313 133.042969 L 518.566406 134.105469 C 519.203125 139.703125 521.066406 145.886719 521.082031 145.949219 L 521.328125 146.753906 L 520.550781 147.082031 C 512.1875 150.589844 499.003906 152.1875 490.292969 152.1875 C 477.941406 152.1875 469.453125 149.390625 464.328125 143.628906 C 459.109375 137.757813 457.316406 128.589844 458.84375 115.605469 C 461.914063 90.292969 471.683594 81.753906 497.5625 81.753906 C 510.351563 81.753906 518.679688 84.1875 523.023438 89.195313 M 377.753906 81.753906 C 365.640625 81.753906 357.347656 84.269531 351.660156 89.671875 C 346.042969 95.011719 342.722656 103.164063 340.894531 116.113281 C 339.066406 128.980469 340.628906 138.0625 345.671875 143.867188 C 350.527344 149.46875 358.773438 152.1875 370.882813 152.1875 C 376.832031 152.1875 385.574219 151.644531 393.441406 149.0625 L 393.996094 148.878906 L 396.214844 133.050781 L 394.796875 133.289063 C 389.324219 134.070313 382.433594 134.464844 374.316406 134.464844 C 368.703125 134.464844 365.90625 133.777344 364.347656 132.007813 C 362.414063 129.816406 362.046875 125.550781 363.089844 117.28125 C 364.957031 101.949219 369.71875 99.472656 380.394531 99.472656 C 384.722656 99.472656 400.878906 99.753906 400.878906 99.753906 L 402.976563 84.738281 C 402.976563 84.738281 393.925781 81.753906 377.753906 81.753906 M 570.617188 97.359375 C 558.726563 97.359375 556.1875 98.871094 553.839844 116.238281 C 552.636719 125.136719 552.285156 130.6875 554.050781 132.707031 C 554.777344 133.542969 556.015625 133.890625 557.898438 133.808594 C 564.394531 133.679688 569.558594 130.25 576.21875 124.359375 L 579.984375 97.359375 Z M 607.4375 55.855469 L 594.019531 150.601563 L 576.949219 150.601563 L 576.949219 140.011719 C 568.492188 148.09375 559.707031 152.1875 550.804688 152.1875 C 544.554688 152.1875 539.933594 150.382813 536.679688 146.671875 C 531.652344 140.941406 530.179688 130.820313 532.171875 115.726563 C 536.101563 87.433594 546.660156 81.753906 562.425781 81.753906 C 568.65625 81.753906 575.796875 82.3125 582.140625 83.253906 L 586.019531 55.855469 "/>
</g>
</svg>
